<svg width="23" height="26" viewBox="0 0 23 26" fill="none" xmlns="http://www.w3.org/2000/svg">
<g clip-path="url(#clip0_540_1244)">
<path d="M11.125 25.4283C12.8792 25.4283 14.3021 24.0054 14.3021 22.2498H7.94795C7.94795 24.0054 9.37086 25.4283 11.125 25.4283ZM21.8224 17.993C20.8629 16.9619 19.0675 15.4109 19.0675 10.3301C19.0675 6.47113 16.3617 3.38195 12.7133 2.62406V1.58904C12.7133 0.711458 12.0021 -0.000244141 11.125 -0.000244141C10.2479 -0.000244141 9.53674 0.711458 9.53674 1.58904V2.62406C5.88834 3.38195 3.18258 6.47113 3.18258 10.3301C3.18258 15.4109 1.38718 16.9619 0.427652 17.993C0.12966 18.3133 -0.00244892 18.6962 3.43379e-05 19.0712C0.00549751 19.8857 0.644688 20.6605 1.59429 20.6605H20.6558C21.6054 20.6605 22.2451 19.8857 22.25 19.0712C22.2525 18.6962 22.1204 18.3128 21.8224 17.993Z" fill="black"/>
</g>
<defs>
<clipPath id="clip0_540_1244">
<rect width="22.25" height="25.4286" fill="white" transform="translate(0 -0.000244141)"/>
</clipPath>
</defs>
</svg>
