<?xml version="1.0" standalone="no"?>
<!DOCTYPE svg PUBLIC "-//W3C//DTD SVG 20010904//EN"
 "http://www.w3.org/TR/2001/REC-SVG-20010904/DTD/svg10.dtd">
<svg version="1.0" xmlns="http://www.w3.org/2000/svg"
 width="688.000000pt" height="1026.000000pt" viewBox="0 0 688.000000 1026.000000"
 preserveAspectRatio="xMidYMid meet">
<metadata>
Created by potrace 1.16, written by Peter Selinger 2001-2019
</metadata>
<g transform="translate(0.000000,1026.000000) scale(0.100000,-0.100000)"
fill="#000000" stroke="none">
<path d="M1082 7951 c2 -6 147 -130 323 -277 176 -146 326 -272 333 -279 11
-10 8 -21 -18 -64 -43 -70 -96 -197 -120 -290 -25 -95 -44 -249 -37 -307 4
-36 2 -44 -12 -44 -94 -1 -1286 -101 -1294 -109 -8 -8 -3 -11 15 -11 30 0
1167 86 1244 94 l50 6 15 -48 c9 -26 19 -54 22 -62 6 -12 -60 -41 -324 -145
-183 -71 -339 -135 -348 -142 -45 -34 50 -3 352 117 181 72 333 130 339 130 6
0 19 -6 27 -14 9 -8 135 -40 281 -71 146 -31 272 -58 281 -61 14 -4 12 -15
-13 -86 -16 -44 -27 -82 -25 -84 1 -2 80 -20 176 -40 146 -32 174 -36 181 -24
12 19 4 23 -110 50 -52 12 -98 26 -103 29 -4 4 -1 34 6 67 12 54 16 59 38 56
13 -2 186 -38 384 -81 l360 -77 0 -40 c-1 -21 -4 -62 -9 -91 l-8 -51 57 -13
c67 -15 65 -16 90 80 10 36 21 69 24 73 4 5 99 -12 211 -36 112 -25 207 -43
211 -40 4 2 28 65 54 139 41 116 46 138 34 149 -8 7 -396 260 -864 561 -467
302 -865 561 -883 577 -57 49 -137 31 -211 -46 -19 -20 -39 -36 -43 -36 -5 0
-157 124 -338 275 -298 249 -359 295 -348 266z m903 -465 c116 -49 126 -351
20 -631 -93 -247 -249 -399 -341 -330 -18 14 -18 15 14 27 17 7 32 16 32 20 0
4 -16 0 -35 -8 l-36 -15 -19 43 c-11 24 -20 53 -20 66 0 20 5 22 48 23 26 0
56 4 67 9 12 5 -10 6 -52 3 l-73 -6 0 85 c0 161 45 341 121 488 56 107 64 116
86 99 16 -13 17 -12 4 3 -12 16 -10 22 13 52 14 19 49 46 78 60 61 31 51 29
93 12z"/>
<path d="M110 7722 c0 -12 1319 -536 1327 -528 4 4 2 10 -3 15 -12 11 -1297
521 -1312 521 -7 0 -12 -4 -12 -8z"/>
<path d="M4309 7315 c-109 -40 -169 -119 -171 -224 0 -31 2 -68 6 -81 l7 -25
-20 25 c-25 31 -35 79 -27 129 5 34 3 39 -17 45 -44 12 -47 9 -47 -54 0 -101
35 -150 160 -225 59 -36 72 -40 144 -42 65 -2 87 -8 125 -30 64 -38 144 -120
177 -184 26 -48 29 -64 29 -145 l0 -91 30 19 c30 18 70 23 99 12 26 -10 39
-67 26 -116 -25 -90 -78 -153 -164 -195 -36 -17 -42 -23 -21 -18 17 3 46 17
66 30 20 13 40 21 43 18 9 -10 7 -66 -6 -163 -10 -80 -9 -95 11 -176 34 -136
54 -154 124 -117 18 9 44 16 58 14 33 -3 61 21 101 89 22 37 39 54 49 52 23
-4 58 43 72 95 8 33 15 42 27 37 8 -3 21 -8 28 -11 15 -6 42 53 102 222 37
104 43 134 47 225 6 122 -6 191 -46 276 -75 157 -185 252 -350 300 -11 3 -11
7 -1 19 16 19 47 19 84 0 15 -8 32 -15 36 -15 8 0 33 51 27 56 -2 2 -24 7 -50
10 -55 8 -100 -8 -116 -39 -9 -19 -10 -16 -5 16 6 35 4 38 -30 52 -47 20 -127
19 -170 -2 -34 -16 -36 -16 -73 9 -21 15 -53 40 -72 58 -40 38 -54 27 -47 -35
4 -37 3 -38 -10 -20 -18 25 -34 81 -34 123 0 36 -13 41 -47 17 -26 -18 -47
-77 -38 -106 l7 -22 -32 19 c-66 38 -93 112 -57 152 31 34 23 38 -34 17z"/>
<path d="M522 7048 c3 -9 97 -25 314 -55 170 -23 324 -44 342 -47 23 -3 32 -1
32 10 0 8 -6 14 -14 14 -15 0 -589 76 -645 86 -25 4 -32 2 -29 -8z"/>
<path d="M3285 5376 c-41 -32 -420 -267 -475 -295 -91 -45 -88 -39 -56 -139
83 -256 259 -599 418 -814 154 -208 313 -332 498 -390 98 -30 306 -32 415 -4
249 64 521 220 880 501 241 189 362 345 410 530 78 301 -151 597 -463 596 -98
0 -170 -19 -272 -72 -155 -80 -275 -195 -455 -434 -167 -222 -240 -275 -377
-275 -44 0 -93 6 -111 14 -89 37 -178 207 -293 556 -42 129 -79 238 -83 242
-3 4 -20 -3 -36 -16z"/>
</g>
</svg>
