<svg width="31" height="35" viewBox="0 0 31 35" fill="none" xmlns="http://www.w3.org/2000/svg">
<g clip-path="url(#clip0_1228_3871)">
<path d="M15.3125 35C17.727 35 19.6855 33.0415 19.6855 30.625H10.9396C10.9396 33.0415 12.8981 35 15.3125 35ZM30.0365 24.7659C28.7158 23.3468 26.2446 21.2119 26.2446 14.2188C26.2446 8.90723 22.5204 4.65527 17.4987 3.61211V2.1875C17.4987 0.97959 16.5198 0 15.3125 0C14.1053 0 13.1264 0.97959 13.1264 2.1875V3.61211C8.10473 4.65527 4.38052 8.90723 4.38052 14.2188C4.38052 21.2119 1.90932 23.3468 0.588621 24.7659C0.178465 25.2068 -0.00337071 25.7339 4.72629e-05 26.25C0.00756679 27.3711 0.887352 28.4375 2.19438 28.4375H28.4307C29.7377 28.4375 30.6182 27.3711 30.625 26.25C30.6285 25.7339 30.4466 25.2062 30.0365 24.7659Z" fill="black"/>
<circle cx="23.5" cy="9.5" r="5" fill="#B28A4F" stroke="white"/>
</g>
<defs>
<clipPath id="clip0_1228_3871">
<rect width="30.625" height="35" fill="white"/>
</clipPath>
</defs>
</svg>
