<svg width="32" height="33" viewBox="0 0 32 33" fill="none" xmlns="http://www.w3.org/2000/svg">
<path fill-rule="evenodd" clip-rule="evenodd" d="M2 9.04919C2 8.25354 2.31607 7.49048 2.87868 6.92787C3.44129 6.36526 4.20435 6.04919 5 6.04919H27C27.7956 6.04919 28.5587 6.36526 29.1213 6.92787C29.6839 7.49048 30 8.25354 30 9.04919V10.0492H2V9.04919ZM2 12.0492H30V23.0492C30 23.8448 29.6839 24.6079 29.1213 25.1705C28.5587 25.7331 27.7956 26.0492 27 26.0492H5C4.20435 26.0492 3.44129 25.7331 2.87868 25.1705C2.31607 24.6079 2 23.8448 2 23.0492V12.0492ZM18 19.0492C17.7348 19.0492 17.4804 19.1546 17.2929 19.3421C17.1054 19.5296 17 19.784 17 20.0492C17 20.3144 17.1054 20.5688 17.2929 20.7563C17.4804 20.9438 17.7348 21.0492 18 21.0492H24C24.2652 21.0492 24.5196 20.9438 24.7071 20.7563C24.8946 20.5688 25 20.3144 25 20.0492C25 19.784 24.8946 19.5296 24.7071 19.3421C24.5196 19.1546 24.2652 19.0492 24 19.0492H18Z" fill="#1F1D1E"/>
</svg>
